#!OML:ASF H:\Dans Jumps\Project 1\Capture day 1\Session 1\subject.ASF
:FULLY-SPECIFIED
:DEGREES
106
root 0.377052 12.9787 -16.4821 24.7145 -0.523668 -2.01212
lowerback 25.8529 0.379931 -1.67051
upperback 7.26867 0.313765 3.05428
thorax -6.29821 0.141519 4.22612
lowerneck -20.5986 1.85139 -0.209455
upperneck 10.7798 3.17976 -3.95066
head 6.6984 1.15955 -0.887543
rclavicle 5.36719e-015 7.45443e-015
rhumerus -62.6588 -14.8645 -63.6411
rradius 25.9802
rwrist 25.7636
rhand -16.4919 -23.4295
rfingers 7.12502
rthumb 9.72558 -53.1849
lclavicle 5.36719e-015 7.45443e-015
lhumerus -62.2705 1.84136 82.8373
lradius 18.8104
lwrist 16.8859
lhand -25.9243 -3.74935
lfingers 7.12502
lthumb 0.618868 26.2295
rfemur -86.0483 -2.50655 22.7507
rtibia 93.9053
rfoot -31.2654 -11.8922
rtoes 0.993515
lfemur -85.3681 8.34153 -22.3174
ltibia 94.0435
lfoot -29.4273 15.1489
ltoes -6.98316
107
root 0.370321 12.9302 -16.4873 24.856 -0.384697 -2.03661
lowerback 26.2607 0.394101 -1.65899
upperback 7.23336 0.339563 3.10789
thorax -6.54138 0.15835 4.27838
lowerneck -20.6922 1.83608 -0.195609
upperneck 10.6098 3.15199 -3.96479
head 6.65796 1.14766 -0.897363
rclavicle -5.96354e-015 -3.08116e-015
rhumerus -63.1312 -14.8154 -63.4606
rradius 25.9091
rwrist 25.9113
rhand -16.4348 -23.3681
rfingers 7.12502
rthumb 9.78067 -53.121
lclavicle -5.96354e-015 -3.08116e-015
lhumerus -62.7851 1.98326 82.5964
lradius 18.6194
lwrist 16.702
lhand -25.774 -3.72452
lfingers 7.12502
lthumb 0.764071 26.2539
rfemur -86.5303 -2.50582 22.8437
rtibia 94.3943
rfoot -31.4141 -12.1745
rtoes 1.02582
lfemur -85.8939 8.27028 -22.2806
ltibia 94.52
lfoot -29.5365 15.2607
ltoes -6.98929
108
root 0.363355 12.8847 -16.4917 24.9837 -0.251945 -2.05664
lowerback 26.6922 0.410188 -1.65205
upperback 7.19827 0.366491 3.15699
thorax -6.79574 0.175973 4.32848
lowerneck -20.7841 1.82177 -0.172566
upperneck 10.4352 3.12424 -3.98848
head 6.6161 1.13538 -0.911777
rclavicle 6.16232e-015 3.67752e-015
rhumerus -63.5315 -14.7695 -63.3105
rradius 25.8366
rwrist 26.054
rhand -16.3833 -23.3024
rfingers 7.12502
rthumb 9.83036 -53.0529
lclavicle 6.16232e-015 3.67752e-015
lhumerus -63.2322 2.09984 82.3713
lradius 18.4374
lwrist 16.5325
lhand -25.5689 -3.6833
lfingers 7.12502
lthumb 0.962127 26.2943
rfemur -86.9764 -2.49483 22.9257
rtibia 94.8519
rfoot -31.5438 -12.4643
rtoes 1.00872
lfemur -86.3788 8.19919 -22.2435
ltibia 94.9661
lfoot -29.6341 15.3747
ltoes -6.98361
109
root 0.356034 12.8424 -16.4951 25.0973 -0.125196 -2.07473
lowerback 27.1491 0.428346 -1.64805
upperback 7.16188 0.395138 3.2019
thorax -7.06386 0.194727 4.37569
lowerneck -20.8679 1.80651 -0.147405
upperneck 10.2544 3.09426 -4.01263
head 6.57086 1.12227 -0.926983
rclavicle 6.95746e-015 -2.72335e-014
rhumerus -63.8599 -14.7306 -63.1869
rradius 25.7599
rwrist 26.1824
rhand -16.3279 -23.2422
rfingers 7.12502
rthumb 9.88385 -52.9901
lclavicle 6.95746e-015 -2.72335e-014
lhumerus -63.6033 2.18379 82.1745
lradius 18.2571
lwrist 16.3807
lhand -25.3478 -3.62384
lfingers 7.12502
lthumb 1.17563 26.3527
rfemur -87.3814 -2.46884 22.9965
rtibia 95.2757
rfoot -31.6574 -12.7562
rtoes 0.981038
lfemur -86.8199 8.12986 -22.2026
ltibia 95.3808
lfoot -29.7252 15.4904
ltoes -6.96966
110
root 0.348449 12.8038 -16.4973 25.2 -0.00434105 -2.08991
lowerback 27.6261 0.448211 -1.64643
upperback 7.12328 0.425077 3.24183
thorax -7.34399 0.214395 4.41878
lowerneck -20.9403 1.78766 -0.125639
upperneck 10.0666 3.05857 -4.02825
head 6.52121 1.10728 -0.939583
rclavicle -2.98177e-015 3.47873e-015
rhumerus -64.1146 -14.7 -63.0904
rradius 25.679
rwrist 26.2833
rhand -16.2629 -23.1889
rfingers 7.12502
rthumb 9.94652 -52.9339
lclavicle -2.98177e-015 3.47873e-015
lhumerus -63.8865 2.24016 82.0021
lradius 18.0633
lwrist 16.2238
lhand -25.1911 -3.5655
lfingers 7.12502
lthumb 1.327 26.4101
rfemur -87.7448 -2.42886 23.0545
rtibia 95.6659
rfoot -31.7634 -13.0411
rtoes 0.974043
lfemur -87.2161 8.06047 -22.1588
ltibia 95.7627
lfoot -29.8121 15.6118
ltoes -6.95454
111
root 0.340634 12.7687 -16.4981 25.299 0.109957 -2.10456
lowerback 28.1161 0.470551 -1.64566
upperback 7.07949 0.457775 3.27776
thorax -7.63603 0.235698 4.45736
lowerneck -21.0094 1.76415 -0.112778
upperneck 9.88272 3.0165 -4.0264
head 6.47165 1.09035 -0.945822
rclavicle 2.18663e-015 8.44835e-015
rhumerus -64.2949 -14.6735 -63.0222
rradius 25.5947
rwrist 26.3472
rhand -16.1908 -23.1463
rfingers 7.12502
rthumb 10.0161 -52.888
lclavicle 2.18663e-015 8.44835e-015
lhumerus -64.0733 2.26847 81.8547
lradius 17.8468
lwrist 16.0424
lhand -25.0775 -3.51116
lfingers 7.12502
lthumb 1.43674 26.4637
rfemur -88.0736 -2.37288 23.102
rtibia 96.0227
rfoot -31.8663 -13.3126
rtoes 1.02488
lfemur -87.5758 7.99258 -22.1109
ltibia 96.1125
lfoot -29.8989 15.7376
ltoes -6.9411
